<svg width="32" height="32" viewBox="0 0 32 32" fill="none" xmlns="http://www.w3.org/2000/svg">
<path fill-rule="evenodd" clip-rule="evenodd" color="white" d="M16 14.625C18.2368 14.625 20.05 12.7782 20.05 10.5C20.05 8.22183 18.2368 6.375 16 6.375C13.7632 6.375 11.95 8.22183 11.95 10.5C11.95 12.7782 13.7632 14.625 16 14.625ZM16 16C18.9823 16 21.4 13.5376 21.4 10.5C21.4 7.46243 18.9823 5 16 5C13.0177 5 10.6 7.46243 10.6 10.5C10.6 13.5376 13.0177 16 16 16ZM10.9565 25.625H21.0435C22.483 25.625 23.65 24.4364 23.65 22.9703C23.65 21.7048 22.773 20.6153 21.5547 20.3671L17.5003 19.5412C16.5099 19.3394 15.4901 19.3394 14.4997 19.5412L10.4453 20.3671C9.22697 20.6153 8.35 21.7048 8.35 22.9703C8.35 24.4364 9.51696 25.625 10.9565 25.625ZM10.1805 19.0188C8.33119 19.3955 7 21.0494 7 22.9703C7 25.1958 8.77137 27 10.9565 27H21.0435C23.2286 27 25 25.1958 25 22.9703C25 21.0494 23.6688 19.3955 21.8195 19.0188L17.765 18.1929C16.5999 17.9555 15.4001 17.9555 14.235 18.1929L10.1805 19.0188Z" fill="black"/>
</svg>
